<svg width="697" height="192" viewBox="0 0 697 192" fill="none" xmlns="http://www.w3.org/2000/svg">
<rect width="697" height="192" rx="20" fill="#2A2C2E"/>
<path fill-rule="evenodd" clip-rule="evenodd" d="M99.1263 117.463C99.1263 122.853 94.7564 127.223 89.3658 127.223L69.9214 127.223L69.9214 101.912H99.1263L99.1263 117.463ZM103.019 101.912H99.1263V101.912L69.9214 101.912V101.912H69.9204V156.428H69.9214V156.428H99.1263V156.428H103.019V156.428H134.171V131.118H134.171V127.223H134.171V101.912L103.019 101.912V101.912ZM103.019 101.912H134.171V127.223L112.78 127.223C107.389 127.223 103.019 122.853 103.019 117.463V101.912ZM134.171 131.118H112.78C107.389 131.118 103.019 135.487 103.019 140.878V156.428H134.171V131.118ZM99.1263 156.428V140.878C99.1263 135.487 94.7564 131.118 89.3658 131.118H69.9214V156.428H99.1263Z" fill="black" fill-opacity="0.2"/>
<path fill-rule="evenodd" clip-rule="evenodd" d="M131.885 49.3929C124.245 49.3929 118.051 43.1993 118.051 35.5591L118.051 13.5195H162.204V49.3929L131.885 49.3929ZM71.14 90.7857V90.786H162.204V13.5195H162.204V13.5192L118.051 13.5192V13.5195H112.532V13.5192L71.1389 13.5192L71.1389 49.3929H71.14V54.9119H71.1389V90.7857H71.14ZM71.14 90.7857V54.9119H98.6979C106.338 54.9119 112.532 61.1055 112.532 68.7458V90.7857H71.14ZM71.14 49.3929L98.6979 49.3929C106.338 49.3929 112.532 43.1993 112.532 35.5591L112.532 13.5195H71.14V49.3929ZM118.051 68.7458C118.051 61.1055 124.245 54.9119 131.885 54.9119H162.204V90.7857H118.051V68.7458Z" fill="black" fill-opacity="0.2"/>
</svg>
