<svg width="1200" height="224" viewBox="0 0 1200 224" fill="none" xmlns="http://www.w3.org/2000/svg">
<g clip-path="url(#clip0_762_5283)">
<rect width="1200" height="224" rx="20" fill="#2A2C2E"/>
<path d="M816.719 204.041L772.092 159.414L783.353 148.153C795.866 135.64 807.961 128.272 819.639 126.048C831.595 123.545 846.471 125.352 864.266 131.469L901.803 143.982C918.486 149.543 932.527 153.018 943.927 154.409C955.605 155.521 966.727 150.794 977.293 140.228C985.357 132.165 990.918 123.823 993.976 115.204C997.035 106.584 996.201 96.8523 991.474 86.0083C987.303 75.1644 978.127 62.6521 963.947 48.4716C947.82 32.3447 933.361 21.5008 920.571 15.9398C908.059 10.6568 896.381 9.82264 885.537 13.4373C874.693 17.052 863.571 24.5593 852.171 35.9593L845.915 42.2155L801.288 -2.41155L807.961 -9.08474C824.644 -25.7677 843.412 -37.0288 864.266 -42.8678C885.676 -48.7069 908.337 -47.7337 932.249 -39.9483C956.718 -32.1629 981.464 -15.7579 1006.49 9.26656C1029.29 32.0666 1044.16 53.8936 1051.12 74.7473C1058.62 95.6011 1059.6 115.204 1054.04 133.555C1049.03 151.906 1039.3 168.311 1024.84 182.77C1011.77 195.838 997.869 204.18 983.132 207.794C968.952 211.409 954.771 212.243 940.591 210.297C926.41 208.35 912.925 205.153 900.134 200.704L865.1 187.358C855.925 184.299 848.556 183.326 842.995 184.438C837.712 185.272 832.429 188.331 827.146 193.614L816.719 204.041ZM729.134 299.134L678.251 248.25L739.978 186.523L790.861 237.407L729.134 299.134Z" fill="black" fill-opacity="0.2"/>
</g>
<defs>
<clipPath id="clip0_762_5283">
<rect width="1200" height="224" rx="20" fill="white"/>
</clipPath>
</defs>
</svg>
